<svg id="Layer_1" data-name="Layer 1" xmlns="http://www.w3.org/2000/svg" viewBox="0 0 440.42776 206.06244"><defs><style>.cls-1,.cls-2{fill:#fff;}.cls-2{font-size:40px;font-family:Oswald-Light, Oswald;font-weight:300;letter-spacing:0.01em;}</style></defs><path d="M148.77739,94.70444c0,19.1376-19.32634,32.96922-47.55858,44.52765-3.03139,0-15.53721-2.08446-25.20038-2.08446-16.10528,0-32.58989,5.874-32.58989,5.874l-5.68438-14.779c5.11585-3.22152,7.76884-5.11632,8.90544-11.18,1.70513-8.71531,3.03185-39.41041,3.03185-54.94762,0-28.42144-4.35811-30.5059-17.05314-28.23224L29.78612,19.29343,72.22885,2.43s7.57917,4.92619,8.3369,18.18974L104.62953,2.80882c21.97933,0,39.41087,12.88422,39.41087,28.42144,0,11.17909-8.71577,21.60045-24.06332,30.50589C134.94576,67.23087,148.77739,78.41,148.77739,94.70444Zm-68.022-29.74723c17.05267-4.54732,25.57924-11.558,25.57924-20.08453,0-6.82145-5.49471-13.64242-11.74762-13.64242-4.54732,0-8.52611,3.41072-10.61057,7.76837C81.89248,43.35675,81.13428,49.42,80.75542,64.95721Zm0,15.34755c0,20.65306.75773,26.71584,4.35811,29.93736,2.65253,2.27412,8.52611,4.35765,13.83162,4.35765,6.25291,0,13.07389-3.03092,13.07389-10.42136,0-10.42136-13.26355-25.01072-23.87412-25.01072A37.00181,37.00181,0,0,0,80.75542,80.30476Z" transform="translate(-29.78612 -2.33502)"/><path d="M152.96236,147a22.35241,22.35241,0,0,1-7.38951-13.83162c7.19984-7.19985,9.09464-7.01018,9.09464-34.67435,0-26.337-1.70513-33.91569-7.57871-33.91569a15.38435,15.38435,0,0,0-5.87405,1.70513l-3.03139-11.93683L173.61542,36.1569c5.49472,0,9.2843,4.35766,14.40015,8.52611-.37886,5.874-1.13706,18.94793-1.13706,29.5585,8.1477-24.253,16.67427-37.51654,16.67427-37.51654,14.96869,0,22.92626,6.06325,22.92626,6.06325a307.31565,307.31565,0,0,1-4.35765,39.9794l-10.80069.18966c-1.51547-6.63178-3.97833-11.17909-8.52565-11.17909-9.474,0-14.96914,19.70566-14.96914,32.96829,0,11.55935,4.16845,23.49618,4.16845,26.14778Z" transform="translate(-29.78612 -2.33502)"/><path d="M319.54662,112.89465,276.3457,145.48454c-9.85329-2.84219-14.40061-10.8007-15.348-21.22113l-25.57878,19.8944C217.608,141.695,208.8918,128.99946,208.8918,113.46364c0-15.917,9.09464-22.16945,27.28484-27.85383,13.26355-4.16892,23.49525-5.305,23.49525-11.3683,0-1.89479-.9474-4.35812-4.35858-6.63178a31.999,31.999,0,0,0-15.91515-4.737c-5.306,0-10.23263,2.08446-17.81088,5.11585l-5.68437-12.88423L248.4928,36.34611c18.947,0,28.421,9.0951,43.57932,18.5686.18966,13.26355-2.27413,27.66417-2.27413,39.601,0,11.55749,2.27413,16.67381,6.63178,16.67381,5.49472,0,17.81087-7.95851,17.81087-7.95851Zm-76.92787-7.76884c0,5.874,3.03186,11.18,6.44211,11.18,1.8948,0,5.68438-2.08538,7.95851-5.49564,2.46286-3.59992,2.84219-8.14724,2.46286-19.70474C249.25053,95.27344,242.61875,96.22083,242.61875,105.12581Z" transform="translate(-29.78612 -2.33502)"/><path d="M334.54834,36.34611c6.63178,0,8.33783,5.30551,12.88515,10.42136.18874,5.87358-2.27412,15.53675-2.08446,28.8003,9.28431-18.18974,20.4634-39.22166,32.77956-39.22166,6.82051,0,14.02128,6.44211,20.27373,10.80022,0,6.06325-1.51546,16.86348-1.51546,28.42144,7.76791-20.84226,22.73659-39.22166,34.295-39.22166,6.82144,0,12.88422,6.44211,19.70566,10.80022,0,16.10529-3.97925,38.46348-3.97925,53.05376,0,8.336,1.32673,12.12556,5.68438,12.12556,4.54732,0,11.74716-4.168,11.74716-4.168l5.87405,9.474L430.99221,145.6742c-8.71623-1.3258-12.12649-8.14817-17.81087-15.72734,0-7.95758,3.03185-22.73659,3.03185-38.27334,0-12.31616-1.89479-17.24281-4.54732-17.24281-6.25337,0-14.40061,23.68492-14.40061,32.96922,0,5.87312,3.03185,17.05314,3.03185,18.94793L364.297,146.24227a33.25871,33.25871,0,0,1-8.33783-13.07389c5.49564-7.01018,7.9585-12.12557,7.9585-39.032,0-14.96869-.75773-18.94747-3.59992-18.94747-6.63178,0-14.779,22.54739-14.779,32.211,0,6.06371,3.22059,17.24188,3.22059,19.32634L311.43242,147a30.59052,30.59052,0,0,1-8.14724-14.02036c7.3895-7.39043,9.09463-12.69549,9.09463-36.3804,0-23.49479-1.70513-32.0209-7.76791-32.0209a12.86827,12.86827,0,0,0-5.68438,1.70513l-3.03185-11.93683Z" transform="translate(-29.78612 -2.33502)"/><path class="cls-1" d="M147.00958,93.04607c0,18.81325-19.00289,32.41044-46.76264,43.773-2.98066,0-15.27718-2.04913-24.77863-2.04913-15.83574,0-32.04447,5.77358-32.04447,5.77358L37.83459,126.015c5.03023-3.166,7.63882-5.02869,8.7564-10.98963,1.67659-8.56759,2.98111-38.74291,2.98111-54.0168,0-27.93974-4.28518-29.98887-16.76774-27.75374L30.00974,18.91269,71.74215,2.335s7.45233,4.8427,8.19738,17.88145l23.661-17.509c21.61149,0,38.7513,12.66586,38.7513,27.93974,0,10.98963-8.56991,21.23436-23.6606,29.98887C133.40945,66.03767,147.00958,77.0273,147.00958,93.04607ZM80.126,63.80254c16.76728-4.47025,25.15116-11.36207,25.15116-19.74413,0-6.70583-5.40276-13.4112-11.551-13.4112-4.47122,0-8.38342,3.35291-10.433,7.63671C81.24405,42.56818,80.49854,48.52866,80.126,63.80254Zm0,15.08744c0,20.303.74505,26.26351,4.28518,29.43043,2.60813,2.23467,8.38341,4.2838,13.60014,4.2838,6.14826,0,12.85508-2.98047,12.85508-10.24474,0-10.24474-13.04157-24.58728-23.47456-24.58728A36.35679,36.35679,0,0,0,80.126,78.89Z" transform="translate(-29.78612 -2.33502)"/><path class="cls-1" d="M152.04027,144.4553a21.97625,21.97625,0,0,1-7.26584-13.5972c7.07935-7.07782,8.94243-6.89137,8.94243-34.08667,0-25.89107-1.67659-33.34133-7.45187-33.34133a15.12921,15.12921,0,0,0-5.77574,1.67623l-2.98066-11.73452,34.8391-17.88145c5.40275,0,9.12892,4.2838,14.15915,8.3816-.37253,5.77449-1.118,18.6268-1.118,29.05753C193.40015,49.08755,201.784,36.0488,201.784,36.0488c14.71817,0,22.54257,5.96048,22.54257,5.96048a302.05885,302.05885,0,0,1-4.28472,39.30227l-10.61994.186c-1.4901-6.51937-3.91174-10.98962-8.383-10.98962-9.31541,0-14.71862,19.37168-14.71862,32.41,0,11.36252,4.09869,23.097,4.09869,25.70461Z" transform="translate(-29.78612 -2.33502)"/><path class="cls-1" d="M317.66766,110.928l-42.47792,32.03754c-9.68839-2.794-14.15961-10.61764-15.09115-20.86147l-25.1507,19.55723c-17.51234-2.42112-26.0827-14.90144-26.0827-30.17486,0-15.64633,8.94243-21.79327,26.82775-27.38131,13.04158-4.0978,23.102-5.21513,23.102-11.17562,0-1.86268-.93154-4.28425-4.28563-6.51938a31.46837,31.46837,0,0,0-15.6488-4.6567c-5.21718,0-10.06092,2.04913-17.51234,5.02915L215.759,54.1167l32.044-18.44035c18.62991,0,27.94532,8.941,42.85,18.2539.18649,13.03876-2.23606,27.19485-2.23606,38.92937,0,11.36253,2.23606,16.39213,6.52079,16.39213,5.40275,0,17.51279-7.82362,17.51279-7.82362Zm-75.64042-7.63717c0,5.77449,2.98111,10.98962,6.3343,10.98962,1.86308,0,5.58925-2.04912,7.82531-5.40158,2.42164-3.53891,2.79462-8.00962,2.42164-19.37169C248.548,93.605,242.02724,94.5363,242.02724,103.29081Z" transform="translate(-29.78612 -2.33502)"/><path class="cls-1" d="M334.24982,35.67635c6.52079,0,8.19829,5.2156,12.6695,10.24474.18558,5.774-2.23606,15.27343-2.04957,28.31219,9.12892-17.88146,20.12093-38.55693,32.231-38.55693,6.70637,0,13.78663,6.33293,19.93444,10.61719,0,5.96048-1.4901,16.57766-1.4901,27.93974,7.63791-20.489,22.35608-38.55693,33.72106-38.55693,6.70728,0,12.6686,6.33293,19.37587,10.61719,0,15.83232-3.91265,37.81157-3.91265,52.15412,0,8.19561,1.30452,11.921,5.58925,11.921,4.47121,0,11.55056-4.09735,11.55056-4.09735l5.77574,9.31339L429.07962,143.152c-8.57036-1.30424-11.92355-8.01007-17.51279-15.46079,0-7.82271,2.98111-22.35124,2.98111-37.62513,0-12.10741-1.86308-16.95056-4.47122-16.95056-6.14871,0-14.1596,23.28349-14.1596,32.4109,0,5.77358,2.98111,16.7632,2.98111,18.62588l-35.39765,19.55814a32.6946,32.6946,0,0,1-8.1983-12.85231c5.40367-6.89137,7.82531-11.921,7.82531-38.37093,0-14.715-.745-18.62634-3.53967-18.62634-6.52079,0-14.53168,22.16525-14.53168,31.66556,0,5.96,3.1667,16.94965,3.1667,18.99878L311.52076,144.4553a30.07736,30.07736,0,0,1-8.01089-13.78365c7.26584-7.26427,8.94243-12.47941,8.94243-35.7629,0-23.097-1.67659-31.47865-7.63791-31.47865a12.65483,12.65483,0,0,0-5.58925,1.67623L296.244,53.37181Z" transform="translate(-29.78612 -2.33502)"/><text class="cls-2" transform="translate(145.35523 194.58197)">Back soon.</text></svg>